<?xml version="1.0" standalone="no"?>
<!DOCTYPE svg PUBLIC "-//W3C//DTD SVG 20010904//EN"
 "http://www.w3.org/TR/2001/REC-SVG-20010904/DTD/svg10.dtd">
<svg version="1.0" xmlns="http://www.w3.org/2000/svg"
 width="78.000000pt" height="78.000000pt" viewBox="0 0 78.000000 78.000000"
 preserveAspectRatio="xMidYMid meet">
<metadata>
Created by potrace 1.14, written by Peter Selinger 2001-2017
</metadata>
<g transform="translate(0.000000,78.000000) scale(0.100000,-0.100000)"
fill="#000000" stroke="none">
<path d="M101 714 l-63 -66 5 -117 c3 -64 10 -128 16 -143 6 -16 8 -28 6 -28
-3 0 6 -25 19 -55 29 -64 78 -138 121 -180 36 -36 119 -95 134 -95 6 0 11 -4
11 -9 0 -5 9 -12 20 -16 21 -7 80 19 80 36 0 6 4 8 10 4 16 -10 131 88 166
143 19 29 34 56 34 61 0 5 3 11 8 13 9 4 40 87 54 143 5 22 11 86 12 142 l3
103 -64 65 -63 65 -223 0 -222 0 -64 -66z"/>
</g>
</svg>
