<svg width="16" height="16" viewBox="0 0 16 16" fill="none" xmlns="http://www.w3.org/2000/svg">
<path d="M7.2 5.6H8.8C9.01218 5.6 9.21566 5.68428 9.36569 5.83431C9.51572 5.98434 9.6 6.18783 9.6 6.4C9.6 6.61217 9.68429 6.81565 9.83432 6.96568C9.98435 7.11571 10.1878 7.2 10.4 7.2C10.6122 7.2 10.8157 7.11571 10.9657 6.96568C11.1157 6.81565 11.2 6.61217 11.2 6.4C11.2 5.76348 10.9471 5.15303 10.4971 4.70294C10.047 4.25286 9.43652 4 8.8 4H7.2C6.56348 4 5.95303 4.25286 5.50295 4.70294C5.05286 5.15303 4.8 5.76348 4.8 6.4V9.6C4.8 10.2365 5.05286 10.847 5.50295 11.2971C5.95303 11.7471 6.56348 12 7.2 12H8.8C9.43652 12 10.047 11.7471 10.4971 11.2971C10.9471 10.847 11.2 10.2365 11.2 9.6C11.2 9.38782 11.1157 9.18434 10.9657 9.03431C10.8157 8.88428 10.6122 8.8 10.4 8.8C10.1878 8.8 9.98435 8.88428 9.83432 9.03431C9.68429 9.18434 9.6 9.38782 9.6 9.6C9.6 9.81217 9.51572 10.0157 9.36569 10.1657C9.21566 10.3157 9.01218 10.4 8.8 10.4H7.2C6.98783 10.4 6.78435 10.3157 6.63432 10.1657C6.48429 10.0157 6.4 9.81217 6.4 9.6V6.4C6.4 6.18783 6.48429 5.98434 6.63432 5.83431C6.78435 5.68428 6.98783 5.6 7.2 5.6ZM8 0C6.41775 0 4.87103 0.469192 3.55544 1.34824C2.23985 2.22729 1.21447 3.47672 0.608967 4.93853C0.00346627 6.40034 -0.15496 8.00887 0.153721 9.56072C0.462403 11.1126 1.22433 12.538 2.34315 13.6569C3.46197 14.7757 4.88743 15.5376 6.43928 15.8463C7.99113 16.155 9.59966 15.9965 11.0615 15.391C12.5233 14.7855 13.7727 13.7602 14.6518 12.4446C15.5308 11.129 16 9.58225 16 8C16 6.94942 15.7931 5.90914 15.391 4.93853C14.989 3.96793 14.3997 3.08601 13.6569 2.34315C12.914 1.60028 12.0321 1.011 11.0615 0.608964C10.0909 0.206926 9.05058 0 8 0ZM8 14.4C6.7342 14.4 5.49683 14.0246 4.44435 13.3214C3.39188 12.6182 2.57158 11.6186 2.08717 10.4492C1.60277 9.27972 1.47603 7.9929 1.72298 6.75142C1.96992 5.50994 2.57946 4.36957 3.47452 3.47452C4.36958 2.57946 5.50995 1.96992 6.75142 1.72297C7.9929 1.47603 9.27973 1.60277 10.4492 2.08717C11.6186 2.57157 12.6182 3.39187 13.3214 4.44435C14.0246 5.49682 14.4 6.7342 14.4 8C14.4 9.69738 13.7257 11.3252 12.5255 12.5255C11.3253 13.7257 9.69739 14.4 8 14.4Z" fill="#333333" fill-opacity="0.8"/>
</svg>
