<svg width="20" height="20" viewBox="0 0 20 20" fill="none" xmlns="http://www.w3.org/2000/svg">
<path d="M9.65581 0.114401L0.555733 8.19398C0.462861 8.27754 0.4107 8.39005 0.410478 8.50732C0.145348 8.79908 0.000543025 9.16229 0 9.53686V18.3158C0 18.5311 0.0478728 18.7443 0.14086 18.9432C0.233848 19.1421 0.370134 19.3229 0.541953 19.4751C0.713772 19.6273 0.917751 19.7481 1.14224 19.8305C1.36674 19.9129 1.60733 19.9553 1.85032 19.9553H2.10294L2.15346 20L2.19767 19.9553H17.8086L17.8528 20L17.897 19.9553H18.1496C18.3926 19.9553 18.6332 19.9129 18.8577 19.8305C19.0822 19.7481 19.2862 19.6273 19.458 19.4751C19.6298 19.3229 19.7661 19.1421 19.8591 18.9432C19.9521 18.7443 20 18.5311 20 18.3158V9.53686C20.0025 9.16182 19.8574 8.79771 19.5895 8.50732C19.5908 8.44906 19.5786 8.39118 19.5536 8.33728C19.5286 8.28338 19.4914 8.23461 19.4442 8.19398L10.3505 0.131203C10.2591 0.0501949 10.1361 0.00328903 10.0069 0.000166552C9.87769 -0.00295593 9.75204 0.0379261 9.65581 0.114401ZM19.179 9.52006V18.2991C19.1784 18.509 19.0965 18.7124 18.9471 18.8753C18.7977 19.0382 18.5898 19.1508 18.358 19.1943L13.0344 14.4775L19.0716 9.12278C19.1419 9.24596 19.1787 9.38203 19.179 9.52006ZM0.820976 18.2991V9.52006C0.824265 9.38236 0.860864 9.24687 0.928322 9.12278L6.97189 14.4775L1.64825 19.1943C1.41532 19.1519 1.20593 19.0398 1.05529 18.8768C0.904641 18.7138 0.821913 18.5098 0.820976 18.2991ZM4.509 8.22755H15.6552V11.1427L9.97157 16.1785L4.47741 11.3162L4.509 8.22755ZM18.4022 8.46814L16.2488 10.3762V7.96459C16.2488 7.93006 16.2411 7.89585 16.2262 7.86395C16.2113 7.83204 16.1894 7.80302 16.1619 7.7786C16.1343 7.75418 16.1016 7.73482 16.0656 7.72161C16.0296 7.70839 15.991 7.70159 15.952 7.70159H4.21219C4.13457 7.70306 4.06068 7.73143 4.00638 7.78059C3.95208 7.82975 3.92168 7.8958 3.9217 7.96459V10.5216L1.60404 8.46814L10.0031 1.02643L18.4022 8.46814ZM7.66655 15.0762L9.65581 16.8331C9.7007 16.8744 9.75468 16.9072 9.81442 16.9293C9.87416 16.9514 9.93839 16.9625 10.0031 16.9618C10.1336 16.9613 10.2585 16.915 10.3505 16.8331L12.3334 15.0762L16.9813 19.1943H3.01862L7.66655 15.0762Z" fill="#8D0D0C"/>
</svg>
