<svg width="16" height="20" viewBox="0 0 16 20" fill="none" xmlns="http://www.w3.org/2000/svg">
<path d="M8 1C4.13542 1 1 3.65643 1 6.92818C1 10.6928 5.66667 16.6586 7.38021 18.7192C7.45134 18.8062 7.54456 18.877 7.65227 18.9258C7.75999 18.9746 7.87914 19 8 19C8.12086 19 8.24001 18.9746 8.34773 18.9258C8.45544 18.877 8.54866 18.8062 8.61979 18.7192C10.3333 16.6595 15 10.6958 15 6.92818C15 3.65643 11.8646 1 8 1Z" stroke="#8D0D0C" stroke-linecap="round" stroke-linejoin="round"/>
<path d="M7.96601 9.9561C9.24839 9.9561 10.288 8.95365 10.288 7.71707C10.288 6.48048 9.24839 5.47803 7.96601 5.47803C6.68362 5.47803 5.64404 6.48048 5.64404 7.71707C5.64404 8.95365 6.68362 9.9561 7.96601 9.9561Z" stroke="#8D0D0C" stroke-linecap="round" stroke-linejoin="round"/>
</svg>
