<svg width="18" height="18" viewBox="0 0 18 18" fill="none" xmlns="http://www.w3.org/2000/svg">
<path d="M0.346651 7.78178C1.10442 10.5222 2.68402 12.968 4.87509 14.7935C7.06617 16.619 9.7647 17.7374 12.6112 17.9999H13.0037C13.5375 18.0041 14.0663 17.8974 14.5562 17.6865C14.6788 17.6328 14.798 17.5716 14.913 17.5032C15.1655 17.357 15.3941 17.1736 15.5911 16.9591L16.1205 16.3678C16.2365 16.2434 16.3382 16.1066 16.4238 15.9598C16.7667 15.4107 16.9045 14.7592 16.8132 14.1193C16.7218 13.4794 16.4072 12.8918 15.9242 12.4592L15.026 11.6786C14.5161 11.2152 13.8493 10.9597 13.1584 10.9631C12.7695 10.9635 12.3851 11.0447 12.0296 11.2015C11.6742 11.3584 11.3557 11.5873 11.0945 11.8737L10.5651 12.4651C10.354 12.6954 10.1832 12.9593 10.0596 13.2456C7.91534 12.3552 6.15058 10.7492 5.06928 8.70425C5.46871 8.54576 5.82668 8.29906 6.11611 7.98281L6.64545 7.39149C6.89254 7.12373 7.08304 6.80938 7.20564 6.46707C7.32825 6.12476 7.38046 5.76147 7.3592 5.39872C7.3592 5.32776 7.3592 5.25681 7.3592 5.18585C7.27681 4.53019 6.96017 3.9258 6.46702 3.48283L5.55106 2.70819C5.03958 2.24724 4.37376 1.99215 3.68341 1.99268C3.52586 1.99254 3.36862 2.0064 3.21354 2.03407C2.71518 2.12276 2.24932 2.34107 1.86336 2.6668C1.77781 2.74118 1.69642 2.82015 1.61951 2.90334L1.09014 3.49467C1.01291 3.5749 0.943208 3.662 0.88194 3.75485C0.506266 4.15597 0.238046 4.6445 0.101896 5.1756C-0.0342544 5.7067 -0.0339652 6.26329 0.102767 6.79424C0.156298 7.0899 0.245537 7.43881 0.346651 7.78178ZM1.33399 4.23383V4.19835C1.3847 4.1238 1.44035 4.05266 1.50054 3.98544L2.03583 3.39412C2.09293 3.33066 2.15455 3.27138 2.22022 3.21673C2.51125 2.96782 2.86489 2.80226 3.24327 2.73775C3.36198 2.72698 3.48142 2.72698 3.60013 2.73775C4.12282 2.73622 4.62741 2.92804 5.01573 3.27588L5.91387 4.08599C6.28935 4.41996 6.53027 4.87797 6.59194 5.37508V5.54063C6.61991 6.09653 6.42528 6.64081 6.05066 7.05443L5.51537 7.64575C5.25775 7.92763 4.92611 8.13242 4.55777 8.23708L4.39716 8.29031C4.35048 8.30411 4.30726 8.32758 4.27036 8.35918C4.23345 8.39077 4.2037 8.42977 4.18305 8.47362C4.16229 8.51809 4.15154 8.56651 4.15154 8.61554C4.15154 8.66456 4.16229 8.71298 4.18305 8.75745L4.26037 8.90528C5.42835 11.2504 7.43175 13.0798 9.88111 14.038L10.0239 14.0971C10.0662 14.1149 10.1117 14.124 10.1577 14.124C10.2037 14.124 10.2491 14.1149 10.2915 14.0971C10.3326 14.0788 10.3693 14.0518 10.3991 14.0182C10.4288 13.9845 10.451 13.9449 10.464 13.902L10.5116 13.7601C10.6055 13.4875 10.7531 13.2362 10.9458 13.0209L11.4811 12.4296C11.679 12.2124 11.9204 12.0386 12.1898 11.9195C12.4591 11.8003 12.7506 11.7385 13.0454 11.7378C13.1937 11.7383 13.3414 11.7561 13.4855 11.791C13.8497 11.8679 14.1877 12.037 14.4669 12.2818L15.3651 13.0919C15.7343 13.4183 15.9747 13.8645 16.0433 14.3509C16.112 14.8373 16.0044 15.3321 15.7398 15.7469C15.6732 15.8573 15.5976 15.9622 15.5138 16.0603L14.9785 16.6517C14.8271 16.8163 14.6504 16.956 14.455 17.0656C14.3638 17.1221 14.2684 17.1715 14.1695 17.2134C13.6621 17.4305 13.107 17.5139 12.5577 17.4559C9.84672 17.2047 7.27698 16.1389 5.19024 14.4002C3.1035 12.6615 1.5987 10.3324 0.876022 7.72263C0.786804 7.38557 0.709478 7.06628 0.649999 6.74696C0.53204 6.30059 0.534243 5.8312 0.656389 5.38594C0.778535 4.94068 1.01632 4.53518 1.34589 4.21015L1.33399 4.23383Z" fill="#8D0D0C"/>
<path d="M18 8.51511C17.9969 6.25773 17.0935 4.09368 15.4879 2.49747C13.8823 0.901259 11.7056 0.00312874 9.43502 0C9.23941 0 9.05184 0.0772716 8.91353 0.214782C8.77521 0.352292 8.69749 0.53877 8.69749 0.733238C8.69749 0.927707 8.77521 1.11422 8.91353 1.25173C9.05184 1.38924 9.23941 1.46651 9.43502 1.46651C11.3144 1.46964 13.1159 2.21326 14.4449 3.53446C15.7738 4.85565 16.5218 6.64666 16.5249 8.51511C16.5249 8.70958 16.6026 8.89609 16.7409 9.0336C16.8793 9.17111 17.0669 9.24835 17.2625 9.24835C17.4581 9.24835 17.6457 9.17111 17.784 9.0336C17.9223 8.89609 18 8.70958 18 8.51511ZM16.858 8.51511C16.8549 6.55884 16.0718 4.68359 14.6804 3.30029C13.289 1.917 11.4027 1.1385 9.43502 1.13537C9.32775 1.13537 9.22487 1.09298 9.14902 1.01757C9.07317 0.94216 9.03057 0.839882 9.03057 0.733238C9.03057 0.626594 9.07317 0.524317 9.14902 0.448908C9.22487 0.3735 9.32775 0.331141 9.43502 0.331141C11.6167 0.334273 13.7081 1.19772 15.2503 2.732C16.7924 4.26628 17.6594 6.34609 17.661 8.51511C17.649 8.6126 17.6016 8.70235 17.5276 8.76746C17.4537 8.83257 17.3583 8.86852 17.2595 8.86852C17.1607 8.86852 17.0653 8.83257 16.9914 8.76746C16.9174 8.70235 16.87 8.6126 16.858 8.51511Z" fill="#8D0D0C"/>
<path d="M13.7176 8.62142C13.7176 8.81589 13.7953 9.00241 13.9336 9.13992C14.0719 9.27743 14.2595 9.35466 14.4551 9.35466C14.6507 9.35466 14.8383 9.27743 14.9766 9.13992C15.1149 9.00241 15.1927 8.81589 15.1927 8.62142C15.1911 7.07713 14.5733 5.59653 13.475 4.50455C12.3766 3.41257 10.8873 2.79844 9.33397 2.79688C9.13836 2.79688 8.95075 2.87411 8.81244 3.01162C8.67412 3.14913 8.59644 3.33565 8.59644 3.53011C8.59644 3.72458 8.67412 3.91106 8.81244 4.04857C8.95075 4.18608 9.13836 4.26335 9.33397 4.26335C10.4961 4.26492 11.6101 4.72458 12.4319 5.54154C13.2536 6.3585 13.716 7.46607 13.7176 8.62142ZM8.95925 3.53011C8.95845 3.47709 8.96836 3.42443 8.9884 3.37528C9.00844 3.32613 9.03821 3.28151 9.07593 3.24401C9.11364 3.20652 9.15856 3.17692 9.208 3.157C9.25743 3.13707 9.31037 3.12722 9.3637 3.12802C10.8287 3.12958 12.2332 3.70884 13.2691 4.73872C14.3051 5.76859 14.8877 7.16496 14.8893 8.62142C14.8962 8.67792 14.891 8.73523 14.874 8.78957C14.857 8.84392 14.8286 8.89404 14.7906 8.93665C14.7527 8.97926 14.7061 9.0134 14.6539 9.03677C14.6017 9.06013 14.5451 9.07221 14.4878 9.07221C14.4306 9.07221 14.374 9.06013 14.3218 9.03677C14.2696 9.0134 14.223 8.97926 14.185 8.93665C14.1471 8.89404 14.1187 8.84392 14.1016 8.78957C14.0846 8.73523 14.0794 8.67792 14.0863 8.62142C14.077 7.37907 13.5764 6.19021 12.6928 5.31171C11.8092 4.4332 10.6133 3.93558 9.3637 3.92629C9.30691 3.93144 9.24969 3.92442 9.19587 3.90568C9.14205 3.88695 9.09291 3.85693 9.05175 3.81769C9.01059 3.77845 8.97837 3.73091 8.95729 3.67823C8.9362 3.62556 8.92673 3.56898 8.92952 3.51236L8.95925 3.53011Z" fill="#8D0D0C"/>
</svg>
