<svg xmlns="http://www.w3.org/2000/svg">
    <symbol id="telegram" width="19" height="17" viewBox="0 0 19 17" fill="none" xmlns="http://www.w3.org/2000/svg">
        <path d="M19 0.602225L15.9946 16.2923C15.9946 16.2923 15.5741 17.3801 14.4189 16.8584L7.48458 11.3526L7.45242 11.3364C8.38909 10.4654 15.6524 3.70266 15.9698 3.39612C16.4613 2.92136 16.1562 2.63873 15.5856 2.99736L4.85679 10.053L0.717638 8.61077C0.717638 8.61077 0.0662573 8.37083 0.00359284 7.84911C-0.0598962 7.32653 0.739076 7.0439 0.739076 7.0439L17.6131 0.188948C17.6131 0.188948 19 -0.44207 19 0.602225Z" fill="currentColor"/>
    </symbol>

    <symbol id="whatsapp" width="21" height="21" viewBox="0 0 21 21" fill="none" xmlns="http://www.w3.org/2000/svg">
        <path d="M17.9268 3.0625C15.9512 1.09375 13.3171 0 10.5366 0C4.7561 0 0.0731696 4.66667 0.0731696 10.4271C0.0731696 12.25 0.585366 14.0729 1.46341 15.6042L0 21L5.56098 19.5417C7.09756 20.3438 8.78049 20.7812 10.5366 20.7812C16.3171 20.7812 21 16.1146 21 10.3542C20.9268 7.65625 19.9024 5.03125 17.9268 3.0625ZM15.5854 14.1458C15.3659 14.7292 14.3415 15.3125 13.8293 15.3854C13.3902 15.4583 12.8049 15.4583 12.2195 15.3125C11.8537 15.1667 11.3415 15.0208 10.7561 14.7292C8.12195 13.6354 6.43903 11.0104 6.29268 10.7917C6.14634 10.6458 5.19512 9.40625 5.19512 8.09375C5.19512 6.78125 5.85366 6.19792 6.07317 5.90625C6.29268 5.61458 6.58536 5.61458 6.80488 5.61458C6.95122 5.61458 7.17073 5.61458 7.31707 5.61458C7.46341 5.61458 7.68293 5.54167 7.90244 6.05208C8.12195 6.5625 8.63414 7.875 8.70731 7.94792C8.78049 8.09375 8.78049 8.23958 8.70731 8.38542C8.63414 8.53125 8.56097 8.67708 8.41463 8.82292C8.26829 8.96875 8.12195 9.1875 8.04878 9.26042C7.90244 9.40625 7.7561 9.55208 7.90244 9.77083C8.04878 10.0625 8.56097 10.8646 9.36585 11.5937C10.3902 12.4687 11.1951 12.7604 11.4878 12.9063C11.7805 13.0521 11.9268 12.9792 12.0732 12.8333C12.2195 12.6875 12.7317 12.1042 12.878 11.8125C13.0244 11.5208 13.2439 11.5938 13.4634 11.6667C13.6829 11.7396 15 12.3958 15.2195 12.5417C15.5122 12.6875 15.6585 12.7604 15.7317 12.8333C15.8049 13.0521 15.8049 13.5625 15.5854 14.1458Z" fill="currentColor"/>
    </symbol>

    <symbol id="plus" width="14" height="14" viewBox="0 0 14 14" fill="none" xmlns="http://www.w3.org/2000/svg">
        <path d="M8.13846 14H5.87692V8.12308H0V5.86154H5.87692V0H8.13846V5.86154H14V8.12308H8.13846V14Z" fill="#343434"/>
    </symbol>

    <symbol id="minus" width="16" height="2" viewBox="0 0 16 2" fill="none" xmlns="http://www.w3.org/2000/svg">
        <path d="M16 2H0V0H16V2Z" fill="#343434"/>
    </symbol>

    <symbol id="cross" width="41" height="42" viewBox="0 0 41 42" fill="none" xmlns="http://www.w3.org/2000/svg">
        <line y1="-1.5" x2="54.8813" y2="-1.5" transform="matrix(0.692395 -0.721518 0.692395 0.721518 3 41.999)" stroke="white" stroke-width="3"/>
        <line y1="-1.5" x2="54.8813" y2="-1.5" transform="matrix(-0.692395 -0.721518 0.692395 -0.721518 40.9996 39.5977)" stroke="white" stroke-width="3"/>
    </symbol>

    <symbol id="pdf" width="32" height="37" viewBox="0 0 32 37" fill="none" xmlns="http://www.w3.org/2000/svg">
        <path d="M8.53187 26.2373H7.70215V29.7589H8.53187C8.9389 29.7589 9.25982 29.6257 9.50248 29.3668C9.74513 29.1078 9.86254 28.7675 9.86254 28.3606V27.6208C9.86254 27.2139 9.74513 26.8809 9.50248 26.622C9.26765 26.3705 8.94672 26.2373 8.53187 26.2373Z" fill="currentColor"/>
        <path d="M4.03122 26.2373H2.93536V27.932H4.03904C4.35214 27.932 4.58697 27.8506 4.75135 27.6952C4.9079 27.5398 4.98617 27.3326 4.98617 27.0884C4.98617 26.8442 4.9079 26.6369 4.75135 26.4741C4.58697 26.3187 4.34432 26.2373 4.03122 26.2373Z" fill="currentColor"/>
        <path d="M16.1325 27.9979L21.2674 23.752H0V32.2512H21.2752L16.1325 27.9979ZM5.35402 28.168C5.03309 28.4417 4.59475 28.5748 4.03117 28.5748H2.93532V30.4019H2.08212V25.5938H4.03117C4.59475 25.5938 5.03309 25.7344 5.35402 26.0081C5.67495 26.2817 5.8315 26.6442 5.8315 27.088C5.8315 27.5392 5.66712 27.9017 5.35402 28.168ZM10.7159 28.3603C10.7159 28.9595 10.5124 29.4477 10.1131 29.8323C9.70612 30.2096 9.18167 30.4019 8.53982 30.4019H6.8569V25.5938H8.53982C9.18167 25.5938 9.70612 25.7861 10.1131 26.1634C10.5202 26.5406 10.7159 27.0362 10.7159 27.6354V28.3603ZM15.1228 26.2374H12.7119V27.7094H14.7627V28.3529H12.7119V30.4019H11.8665V25.5938H15.1228V26.2374Z" fill="currentColor"/>
        <path d="M31.6388 8.22488H29.455V4.23047H24.5158V8.22488H22.3398C22.0267 8.22488 21.8623 8.53555 22.0736 8.72788L26.7232 13.8244C26.8641 13.9576 27.1145 13.9576 27.2554 13.8244L31.905 8.72788C32.1163 8.52816 31.9519 8.22488 31.6388 8.22488Z" fill="currentColor"/>
        <path d="M29.4549 1.69434H24.5157V3.50748H29.4549V1.69434Z" fill="currentColor"/>
        <path d="M26.4492 14.7939V33.9819C26.4492 35.0989 25.4942 36.0013 24.3123 36.0013H3.75721C2.57525 36.0013 1.6203 35.0989 1.6203 33.9819V32.9019H0.571411V34.3813C0.571411 35.8238 1.80816 36.9999 3.34235 36.9999H24.7271C26.2535 36.9999 27.4981 35.8312 27.4981 34.3813V14.8013C27.3415 14.8605 27.1693 14.8901 26.9893 14.8901C26.8014 14.8901 26.6135 14.8531 26.4492 14.7939Z" fill="currentColor"/>
        <path d="M1.6203 5.55496C1.6203 4.43801 2.57525 3.53557 3.75721 3.53557H23.4904V3.25448V2.55176H3.34235C1.81599 2.55176 0.571411 3.72049 0.571411 5.17032V23.1082H1.6203V5.55496Z" fill="currentColor"/>
        <path d="M21.2594 9.32031H4.75122V10.756H22.5745L21.3142 9.37952C21.2908 9.36472 21.2751 9.34251 21.2594 9.32031Z" fill="currentColor"/>
        <path d="M23.3181 11.6504H4.75122V13.0861H23.3181V11.6504Z" fill="currentColor"/>
        <path d="M23.3181 13.9805H4.75122V15.4162H23.3181V13.9805Z" fill="currentColor"/>
        <path d="M23.3181 16.3174H4.75122V17.7531H23.3181V16.3174Z" fill="currentColor"/>
        <path d="M19.2947 18.6475H4.75122V20.0832H19.2947V18.6475Z" fill="currentColor"/>
        <path d="M29.4549 0.30352C29.4549 0.140656 29.2983 0 29.0948 0H24.868C24.6723 0 24.5079 0.133253 24.5079 0.30352V0.969783H29.4471V0.30352H29.4549Z" fill="currentColor"/>
    </symbol>
</svg>
